Coordinates
version=1
nRows=43
nColumns=12
inDegrees=yes

Units are S.I. units (second, meters, Newtons, ...)
Angles are in degrees

endheader
time	SC_y	SC_z	SC_x	AC_y	AC_z	AC_x	GH_y	GH_z	GH_yy	EL_x	PS_y
       0.0              -29.73          35.73          68.37          52.06         -11.26          10.91         -123.5          37.71           42.6          63.52          106.6
  0.003024              -29.73          35.73          68.36          52.06         -11.25          10.91         -123.5          37.71          42.58          63.52          106.6
  0.006048              -29.73          35.72          68.35          52.05         -11.25          10.91         -123.4          37.72          42.57          63.51          106.6
  0.009072              -29.73          35.72          68.34          52.05         -11.25           10.9         -123.4          37.72          42.56          63.51          106.6
    0.0121              -29.73          35.72          68.33          52.05         -11.25           10.9         -123.4          37.72          42.55           63.5          106.6
   0.01512              -29.74          35.71          68.31          52.05         -11.25          10.89         -123.4          37.72          42.53          63.49          106.6
   0.01814              -29.74          35.71           68.3          52.05         -11.25          10.89         -123.4          37.72          42.52          63.49          106.6
   0.02117              -29.74          35.71          68.29          52.05         -11.24          10.89         -123.4          37.72           42.5          63.48          106.6
   0.02419              -29.74           35.7          68.27          52.04         -11.24          10.88         -123.4          37.72          42.48          63.47          106.6
   0.02721              -29.74           35.7          68.26          52.04         -11.24          10.88         -123.4          37.73          42.46          63.46          106.5
   0.03024              -29.74          35.69          68.24          52.04         -11.24          10.87         -123.3          37.73          42.44          63.45          106.5
   0.03326              -29.75          35.68          68.22          52.04         -11.24          10.86         -123.3          37.73          42.42          63.45          106.5
   0.03629              -29.75          35.68           68.2          52.03         -11.23          10.86         -123.3          37.73           42.4          63.43          106.5
   0.03931              -29.75          35.67          68.18          52.03         -11.23          10.85         -123.3          37.73          42.37          63.42          106.5
   0.04233              -29.75          35.66          68.16          52.03         -11.23          10.84         -123.2          37.74          42.34          63.41          106.5
   0.04536              -29.75          35.66          68.14          52.03         -11.22          10.83         -123.2          37.74          42.31           63.4          106.5
   0.04838              -29.76          35.65          68.11          52.02         -11.22          10.83         -123.2          37.74          42.28          63.38          106.5
   0.05141              -29.76          35.64          68.08          52.02         -11.22          10.82         -123.2          37.75          42.25          63.37          106.5
   0.05443              -29.76          35.63          68.05          52.01         -11.21          10.81         -123.1          37.75          42.21          63.35          106.5
   0.05745              -29.77          35.62          68.02          52.01         -11.21          10.79         -123.1          37.75          42.17          63.33          106.4
   0.06048              -29.77          35.61          67.98           52.0          -11.2          10.78         -123.0          37.76          42.12          63.31          106.4
    0.0635              -29.78          35.59          67.94           52.0          -11.2          10.77         -123.0          37.76          42.07          63.29          106.4
   0.06653              -29.78          35.58          67.89          51.99         -11.19          10.75         -123.0          37.77          42.01          63.26          106.4
   0.06955              -29.79          35.56          67.84          51.98         -11.18          10.73         -122.9          37.77          41.95          63.23          106.4
   0.07257              -29.79          35.54          67.78          51.98         -11.17          10.72         -122.8          37.78          41.88           63.2          106.3
    0.0756               -29.8          35.52          67.72          51.97         -11.17          10.69         -122.8          37.78           41.8          63.17          106.3
   0.07862              -29.81           35.5          67.65          51.96         -11.16          10.67         -122.7          37.79          41.71          63.13          106.3
   0.08164              -29.82          35.47          67.57          51.95         -11.14          10.64         -122.6           37.8          41.62          63.08          106.3
   0.08467              -29.83          35.45          67.48          51.94         -11.13          10.61         -122.5          37.81          41.51          63.03          106.2
   0.08769              -29.84          35.41          67.38          51.92         -11.12          10.58         -122.4          37.82          41.38          62.98          106.2
   0.09072              -29.85          35.37          67.26          51.91          -11.1          10.54         -122.3          37.84          41.24          62.91          106.1
   0.09374              -29.87          35.33          67.13          51.89         -11.08          10.49         -122.1          37.85          41.07          62.84          106.1
   0.09676              -29.89          35.28          66.97          51.87         -11.06          10.44         -122.0          37.87          40.88          62.76          106.0
   0.09979              -29.91          35.22          66.79          51.84         -11.04          10.38         -121.8          37.89          40.66          62.66          105.9
    0.1028              -29.93          35.16          66.58          51.81         -11.01          10.31         -121.5          37.91           40.4          62.54          105.8
    0.1058              -29.96          35.08          66.34          51.78         -10.97          10.23         -121.3          37.94           40.1           62.4          105.7
    0.1089              -29.99          34.98          66.04          51.74         -10.93          10.13         -120.9          37.97          39.74          62.24          105.6
    0.1119              -30.03          34.87          65.69          51.69         -10.88          10.01         -120.6          38.01           39.3          62.05          105.4
    0.1149              -30.08          34.73          65.26          51.63         -10.82          9.864         -120.1          38.06          38.78          61.81          105.3
    0.1179              -30.13          34.56          64.74          51.56         -10.75          9.689         -119.5          38.11          38.14          61.52          105.0
     0.121              -30.21          34.36           64.1          51.48         -10.66          9.472         -118.8          38.18          37.35          61.17          104.8
     0.124               -30.3           34.1           63.3          51.37         -10.55          9.201         -118.0          38.27          36.36          60.73          104.4
     0.127              -30.41          33.77          62.29          51.23         -10.41           8.86         -116.9          38.38          35.12          60.17          104.0
